<?xml version="1.0" encoding="UTF-8"?><svg id="Layer_1" xmlns="http://www.w3.org/2000/svg" viewBox="0 0 225.69 72"><defs><style>.cls-1 {
        fill: #20a75b;
      }</style></defs><g><path class="cls-1" d="M120.91,48.43c-.37.16-.74.31-1.09.48-.34.16-.69.33-1.05.51h14.14c.12-.15.23-.31.32-.47h0s0-.02,0-.02c.16-.24.2-.41.21-.5h-12.54Z"/><path class="cls-1" d="M114.37,48.43h-26.73v.99h25.31c.45-.34.92-.67,1.41-.99Z"/><path class="cls-1" d="M136.29,48.43v.07s0,.01,0,.01c-.01.31-.06.61-.14.91h89.3v-.99h-89.16Z"/></g><path class="cls-1" d="M208.99,32.08l-.88.73c-.49-.69-1.07-1.2-1.75-1.55-.68-.35-1.43-.53-2.25-.53-.89,0-1.72.23-2.48.69-.76.46-1.35,1.08-1.77,1.86-.42.78-.63,1.66-.63,2.63,0,1.47.47,2.7,1.4,3.68.94.98,2.12,1.48,3.54,1.48,1.57,0,2.88-.66,3.93-1.98l.88.72c-.56.77-1.26,1.36-2.09,1.78-.83.42-1.77.63-2.8.63-1.96,0-3.5-.7-4.63-2.11-.95-1.19-1.42-2.62-1.42-4.3,0-1.77.57-3.25,1.72-4.46,1.15-1.21,2.59-1.81,4.32-1.81,1.04,0,1.99.22,2.83.67.84.45,1.53,1.07,2.07,1.88"/><path class="cls-1" d="M218.81,39.66l.95-.62c.67,1.33,1.44,1.99,2.32,1.99.38,0,.73-.09,1.06-.28.33-.19.58-.44.75-.76.17-.32.26-.65.26-1.01,0-.4-.13-.8-.38-1.19-.35-.53-.99-1.18-1.92-1.94-.93-.76-1.51-1.31-1.74-1.65-.4-.57-.59-1.18-.59-1.84,0-.53.12-1,.35-1.44.23-.43.56-.77.99-1.02.42-.25.88-.37,1.38-.37.53,0,1.02.14,1.48.42.46.28.94.8,1.46,1.55l-.91.75c-.42-.6-.78-1-1.08-1.19-.3-.19-.62-.29-.97-.29-.45,0-.82.15-1.11.44-.29.29-.43.66-.43,1.09,0,.26.05.52.15.76.1.25.29.51.56.8.15.15.63.55,1.45,1.21.97.77,1.63,1.46,1.99,2.06.36.6.54,1.2.54,1.81,0,.87-.31,1.64-.92,2.28-.62.65-1.37.97-2.25.97-.68,0-1.3-.2-1.85-.59-.55-.39-1.06-1.05-1.53-1.97"/><polygon class="cls-1" points="126.93 57.57 126.93 57.57 126.93 57.57 126.93 57.57"/><polygon class="cls-1" points="123.98 65.55 123.97 65.55 123.97 65.55 123.98 65.55"/><polygon class="cls-1" points="120.58 46.83 120.58 46.83 120.58 46.83 120.58 46.83"/><path class="cls-1" d="M204.9,55.64c-.12-.01-.22-.02-.3-.02-.07,0-.14,0-.21,0-1.66,0-2.95.39-3.86,1.15-.91.77-1.36,1.86-1.36,3.26v.99c0,.89.16,1.5.49,1.83.33.33.94.5,1.83.5h3c.83,0,1.45-.15,1.84-.45.39-.3.59-.76.59-1.4v-1.02c0-.73-.22-1.24-.65-1.53-.43-.28-1.24-.43-2.41-.43-.58,0-1.14.03-1.7.08-.56.06-1.11.14-1.65.24.11-.76.55-1.32,1.32-1.69.77-.37,1.9-.55,3.38-.55.12,0,.21,0,.28,0,.07,0,.13,0,.18.01l-.77-.99ZM202.08,59.59c.59-.05,1.21-.07,1.84-.07.7,0,1.17.08,1.41.24.25.16.37.47.37.93v.49c0,.46-.1.77-.3.93-.2.16-.59.24-1.17.24h-2.29c-.74,0-1.19-.1-1.35-.29-.16-.19-.25-.79-.25-1.8,0-.06,0-.12.01-.2,0-.08.02-.16.04-.26.53-.09,1.09-.16,1.68-.21M190.59,63.48l4.16-6.7v-.98h-7.87v2.57l1.13.21v-1.76h5.5l-4.38,6.67h1.47ZM178.97,59.57c-.59.05-1.21.07-1.84.07-.7,0-1.17-.08-1.41-.24-.25-.16-.37-.47-.37-.93v-.49c0-.46.1-.77.3-.93.2-.16.59-.24,1.18-.24h2.29c.74,0,1.19.09,1.34.27.16.18.24.78.24,1.8,0,.06,0,.13-.01.21,0,.08-.02.17-.03.26-.53.09-1.09.16-1.68.21M176.16,63.51c.06,0,.13.02.2.02.07,0,.17,0,.32,0,1.66,0,2.95-.38,3.86-1.15.91-.77,1.36-1.85,1.36-3.26v-.99c0-.89-.17-1.5-.5-1.83-.33-.33-.94-.5-1.84-.5h-2.99c-.83,0-1.45.15-1.84.45-.39.3-.59.76-.59,1.39v1.01c0,.73.22,1.24.65,1.53.43.29,1.23.43,2.39.43.58,0,1.15-.03,1.71-.08.56-.05,1.11-.13,1.66-.24-.11.76-.55,1.32-1.33,1.69-.77.37-1.9.55-3.39.55-.08,0-.2,0-.37-.02-.03,0-.06,0-.08,0l.77,1.01ZM168.36,63.35v-7.61l-2.8.49v.76h1.64v6.37h1.16Z"/><polygon class="cls-1" points="106.09 .16 98.82 9.5 91.21 .16 87.18 .16 97.05 11.97 97.05 21.11 100.29 21.11 100.29 11.9 110.04 .16 106.09 .16"/><path class="cls-1" d="M119.18.16h13.44c3.5,0,4.52,1.1,4.52,4.96v11.04c0,3.86-1.02,4.96-4.52,4.96h-13.44c-3.47,0-4.56-1.05-4.56-4.96V5.12c0-3.9,1.09-4.96,4.56-4.96M133.94,3.01h-16.08v15.18h16.08V3.01Z"/><path class="cls-1" d="M165.15,1.79c2.49,1.74,4.03,4.99,4.03,8.73,0,3.93-1.51,7.18-4.03,8.97-1.73,1.21-4.18,1.62-7.46,1.62h-10.7V.16h10.7c3.28,0,5.69.41,7.46,1.62M150.24,3.01v15.18h7.01c5.8,0,8.63-1.75,8.63-7.67s-2.86-7.51-8.63-7.51h-7.01Z"/><polygon class="cls-1" points="177.42 .16 177.42 21.11 196.29 21.11 196.29 18.23 180.66 18.23 180.66 11.57 190.11 11.57 190.11 8.81 180.66 8.81 180.66 2.96 196.14 2.96 196.14 .16 177.42 .16"/><path class="cls-1" d="M204,.16h15.67c2.82,0,4.1,1.14,4.1,4.06v4.67c0,2.92-1.28,4.06-4.1,4.06h-2.86l8.88,8.16h-4.82l-7.91-8.16h-5.72v8.16h-3.24V.16ZM207.24,2.89v7.35h11.14c1.43,0,2.11-.37,2.11-2.15v-3.04c0-1.74-.67-2.15-2.11-2.15h-11.14Z"/><path class="cls-1" d="M99.02,31.87l-.87.88c-.62-.66-1.31-1.16-2.05-1.5-.74-.34-1.47-.51-2.17-.51-.88,0-1.71.23-2.51.7-.79.46-1.41,1.1-1.85,1.89-.44.79-.65,1.64-.65,2.52s.22,1.77.68,2.59c.45.82,1.08,1.46,1.87,1.93.8.47,1.67.7,2.62.7,1.15,0,2.13-.35,2.92-1.05.8-.7,1.27-1.61,1.42-2.72h-3.57v-1.17h4.82c0,1.86-.52,3.35-1.54,4.44-1.02,1.1-2.38,1.64-4.08,1.64-2.07,0-3.71-.76-4.92-2.28-.93-1.17-1.39-2.53-1.39-4.06,0-1.14.27-2.21.8-3.19.53-.98,1.26-1.75,2.19-2.31.93-.56,1.98-.83,3.15-.83.95,0,1.84.18,2.68.55.84.37,1.65.96,2.45,1.78"/><path class="cls-1" d="M110.61,29.84h2.23c1.24,0,2.08.05,2.53.16.66.16,1.21.52,1.62,1.06.42.54.62,1.2.62,1.99,0,.66-.14,1.24-.43,1.73-.29.5-.7.87-1.23,1.13-.53.25-1.27.38-2.21.39l4.03,5.6h-1.38l-4.03-5.6h-.63v5.6h-1.12v-12.07ZM111.72,31.02v4.1l1.93.02c.75,0,1.3-.08,1.66-.23.36-.15.64-.4.84-.74.2-.34.3-.71.3-1.13s-.1-.77-.3-1.11c-.2-.33-.47-.57-.8-.71-.33-.14-.88-.21-1.65-.21h-1.97Z"/><path class="cls-1" d="M133.31,29.84l5.22,12.07h-1.21l-1.76-3.97h-4.82l-1.74,3.97h-1.25l5.29-12.07h.27ZM133.17,32.41l-1.92,4.37h3.83l-1.91-4.37Z"/><path class="cls-1" d="M148.98,29.84h2.23c1.28,0,2.14.06,2.59.18.64.17,1.16.52,1.57,1.05.41.53.61,1.19.61,1.99s-.2,1.47-.59,1.99c-.4.52-.94.87-1.64,1.05-.51.13-1.46.2-2.85.2h-.8v5.61h-1.12v-12.07ZM150.1,31.02v4.09l1.89.02c.77,0,1.33-.08,1.68-.22.36-.15.63-.39.84-.73.2-.33.3-.71.3-1.13s-.1-.77-.3-1.11c-.2-.34-.47-.57-.8-.72-.33-.14-.88-.21-1.63-.21h-1.98Z"/><polygon class="cls-1" points="166.93 29.84 168.05 29.84 168.05 34.9 173.75 34.9 173.75 29.84 174.86 29.84 174.86 41.91 173.75 41.91 173.75 36.08 168.05 36.08 168.05 41.91 166.93 41.91 166.93 29.84"/><rect class="cls-1" x="186.16" y="29.84" width="1.12" height="12.07"/><polygon class="cls-1" points="0 8.64 32.05 29.95 32.13 72 39.24 71.97 73.93 49.76 73.93 21.87 47.56 38.78 47.44 47.06 66.84 34.75 66.84 46.01 39.3 63.53 39.36 29.97 73.97 8.72 73.93 .32 35.76 24.01 0 0 0 8.64"/><path class="cls-1" d="M133.78,45.55c-.67-.52-1.47-.77-2.23-.96-.73-.18-1.49-.25-2.53-.25-.44,0-.96.03-1.46.08-1.06.11-2.16.32-3.27.63-1.03.27-2.05.6-3.03.98-.84.32-1.6.65-2.33,1.01-.94.42-1.94.95-3.13,1.66-1.09.63-2.04,1.3-2.91,2.03-.37.32-.72.63-1.02,1.07-.17.22-.34.5-.34.88,0,.16.05.3.1.44l.02.07c.18.54.62.76.99.89.39.15.82.24,1.41.31.41.07.84.11,1.26.15.4.04.82.08,1.23.15.31.04.6.07.89.1.61.07,1.24.13,1.85.23,1,.18,2.04.38,3.06.65,1.04.28,2,.64,2.85,1.07.6.3,1.06.62,1.43.98.48.48.74,1.04.74,1.61,0,.33-.08.68-.25,1.03-.28.58-.69,1.15-1.26,1.75-.81.86-1.76,1.67-3,2.57-1.21.85-2.41,1.6-3.55,2.23-.88.48-1.83.98-2.83,1.46-1.23.57-2.38,1.05-3.53,1.45-1.07.37-1.98.61-2.86.75h-.06c-.51.09-1,.16-1.52.16h-.18c-.29-.02-.63-.07-.96-.22-.3-.12-.4-.26-.4-.59v-.11c.02-.34.15-.69.42-1.11.58-.91,1.37-1.65,2.07-2.25.49-.42,1.07-.86,1.8-1.37.83-.6,1.72-1.21,2.73-1.87.28-.17.57-.35.86-.53.29-.18.58-.35.87-.53.73-.47,1.4-.86,2.05-1.21.17-.09.33-.19.5-.28.32-.18.64-.37.96-.53.73-.38,1.47-.76,2.22-1.11.65-.29,1.34-.59,2.05-.8l.08-.02c.42-.12.81-.24,1.21-.24.15,0,.31,0,.44.04h.04s.04.01.04.01h.08c.24,0,.33-.14.37-.25v-.04s.01-.04.01-.04v-.05c0-.18-.11-.3-.18-.37l-.03-.03-.04-.02c-.21-.09-.4-.13-.64-.13-.5,0-.97.11-1.31.2-.98.31-1.99.72-3.29,1.32-1.08.54-2.23,1.12-3.36,1.8-1.08.62-2.19,1.28-3.25,1.92-1.19.75-2.4,1.53-3.54,2.37-1.11.77-2,1.55-2.72,2.37-.53.56-.9,1.13-1.11,1.74-.09.26-.18.56-.18.89,0,.13.03.28.06.43.18.85.75,1.36,1.72,1.52.27.05.59.08.88.08.4,0,.8-.04,1.32-.14.15-.03.3-.06.45-.09.47-.1.96-.2,1.42-.35.59-.16,1.17-.35,1.73-.54.61-.22,1.27-.48,2.03-.79.64-.28,1.27-.58,1.88-.87.71-.35,1.39-.71,2.1-1.09.14-.08.28-.16.42-.24.52-.3,1.05-.61,1.55-.93.89-.56,1.8-1.15,2.65-1.8.78-.61,1.91-1.55,2.81-2.73.66-.85,1-1.67,1.08-2.56.03-.15.03-.3.03-.41,0-.85-.3-1.59-.93-2.28-.51-.57-1.16-.94-1.73-1.22-.73-.39-1.55-.71-2.56-.99-.62-.19-1.26-.36-1.89-.49-.93-.19-1.88-.35-2.84-.49-.6-.09-1.19-.16-1.76-.19-.26-.02-.52-.06-.8-.1-.3-.04-.61-.09-.92-.11-.57-.05-1.24-.12-1.88-.32h-.02s-.02,0-.02,0c-.13-.02-.26-.07-.36-.12l-.05-.04v-.02s.03-.02.03-.02v-.03c.1-.25.29-.44.49-.64.73-.76,1.59-1.36,2.4-1.89.55-.35,1.12-.69,1.8-1.08.78-.43,1.5-.8,2.21-1.13.64-.29,1.3-.57,1.93-.83,1.05-.41,2.16-.76,3.39-1.08.63-.18,1.3-.34,2.02-.4.16-.02.32-.03.47-.05.62-.07,1.26-.14,1.9-.14.21,0,.39.02.61.05h.07c1,.07,1.79.23,2.48.51.58.22,1.06.51,1.47.9.31.31.51.61.61.93.05.16.1.36.1.52,0,.32-.12.68-.37,1.06-.33.57-.78,1.08-1.42,1.63-.11.1-.21.19-.32.29-.1.09-.2.19-.31.28-.08.08-.17.19-.21.37v.03s0,.03,0,.03v.05c0,.11.05.23.13.31.04.04.13.13.26.13.12,0,.21-.08.27-.14.07-.05.14-.11.21-.17.07-.06.15-.12.21-.17.66-.51,1.19-1.04,1.64-1.61.49-.69.73-1.32.76-2.01v-.09c0-1.16-.49-2.09-1.51-2.83Z"/><path class="cls-1" d="M136.96,55.03c-.07-.4-.36-.45-.48-.45-.06,0-.2,0-.33.08-.1.04-.19.11-.26.16-.04.03-.08.06-.13.09h-.01s-.01.01-.01.01c-.42.32-.85.73-1.23,1.2-.15.15-.29.32-.4.49-.11.18-.15.33-.15.52v.04c.05.31.26.51.55.51h.12c.14-.05.48-.15.48-.49,0-.07-.02-.12-.03-.15h0v-.07c.06-.06.12-.12.18-.18.16-.16.29-.3.49-.33.13,0,.21-.08.25-.11l.72-.56c.2-.15.26-.36.28-.51v-.02s0-.02,0-.02c0-.03,0-.11-.04-.21Z"/><path class="cls-1" d="M160.51,60.02c-.1-.1-.21-.1-.26-.1h-.11l-.05.03s-.07.04-.11.06l-.08.05h-.02s-.02.02-.02.02c-.19.13-.41.27-.6.39-1.64.85-3.28,1.5-5.02,2.01-.22.05-.45.1-.66.1-.43,0-.43-.07-.43-.35v-.11s.01-.11.04-.19c.09-.31.24-.61.48-.94h0s0-.02,0-.02c.02-.03.03-.04.11-.04.12,0,.25,0,.39-.03.89-.25,1.64-.67,2.23-1.26.17-.17.3-.4.36-.66v-.03s0-.03,0-.03v-.02s.03-.08.03-.14c0-.47-.38-.84-.84-.84-.06,0-.17,0-.26.04-.27.06-.53.19-.81.39-.75.5-1.39,1.08-1.88,1.72-.11.07-.22.14-.31.21-.87.6-1.87,1.04-2.85,1.46-.98.39-2.05.79-3.23,1.04-.07,0-.14.02-.22.03-.14.02-.27.04-.39.04-.07,0-.13,0-.21-.02-.27-.07-.27-.12-.27-.22,0-.05,0-.11.02-.18v-.02s0-.02,0-.02c.02-.18.1-.38.23-.6.67-1.12,1.6-1.99,2.83-2.69.04.22.2.36.43.36h.09c.31-.08.65-.44.65-.82v-.13c-.13-.67-.55-.77-.79-.77h-.09c-.25.03-.46.12-.66.21h0s0,0,0,0c-1.02.52-1.92,1.25-2.66,2.16-.64.46-1.37.68-2.01.83-.4.09-.83.13-1.41.13h-.43c-.35-.02-.43-.09-.52-.48-.02-.11-.02-.2-.02-.33v-.34c.03-.27.05-.55.05-.83-.03-.53-.39-.9-.84-.9-.18,0-.33.04-.5.14-.23.12-.44.28-.64.45-.04.03-.07.06-.11.09.03-.03.05-.06.08-.09.11-.11.17-.25.17-.38,0-.17-.07-.31-.2-.41-.13-.13-.27-.19-.4-.19-.14,0-.24.07-.31.12l-.04.03c-.08.06-.14.13-.19.18l-.04.04h0s0,.02,0,.02c-.56.66-1.04,1.29-1.47,1.93-.35.24-.71.46-1.08.64-1.03.52-2.1.93-3.01,1.26-.47.18-.98.37-1.51.48h0s0,0,0,0c-.18.05-.35.1-.5.1h-.05s-.06-.02-.1-.02c-.03-.01-.07-.02-.1-.04v-.04s0-.11,0-.11c0-.26.14-.49.29-.74.67-.97,1.33-1.66,2.07-2.17.12-.09.24-.18.33-.27.12-.12.18-.28.18-.47s-.07-.36-.21-.5c-.06-.06-.18-.13-.28-.13-.03,0-.12,0-.2.05-.08.03-.15.07-.24.12h0s0,.01,0,.01c-.75.59-1.35,1.17-1.85,1.77-.25.28-.48.59-.67.93-.22.44-.33.8-.36,1.14h0v.07c0,.62.39,1.28,1.25,1.28.42,0,.79-.12,1.16-.23,1.46-.51,2.78-1.06,4.02-1.68-.11.21-.22.41-.32.62-.12.19-.25.43-.32.75-.03.08-.04.14-.04.19,0,.22.12.38.32.45h0s.11.07.22.07c.18,0,.29-.1.36-.17.12-.1.22-.21.31-.31.04-.05.09-.09.13-.13.75-.86,1.56-1.75,2.43-2.57.34-.32.74-.68,1.19-1,0,.19,0,.38,0,.57v.36c.1.71.54,1.23,1.21,1.43h.02s.02,0,.02,0c.2.03.4.06.6.06h.22c.65,0,1.3-.13,1.84-.25.24-.05.48-.12.71-.21-.08.2-.14.4-.17.59-.03.11-.03.19-.03.27,0,.76.62,1.41,1.38,1.44h.2c.27,0,.58-.05.93-.14,1.66-.46,3.34-1.13,5.12-2.05h.02s-.03.11-.05.17c-.04.12-.04.24-.04.34,0,.7.47,1.23,1.21,1.36h.02s.02,0,.02,0h.08s.1.03.16.03c.25,0,.48-.06.69-.11.05-.01.1-.02.15-.03h0s0,0,0,0c1.29-.38,2.61-.9,4.05-1.59.55-.24,1.2-.55,1.8-1l.05-.04.02-.04.02-.02.07-.07s.13-.13.13-.26c0-.04,0-.16-.1-.26ZM154.17,60.05c.06-.15.31-.51.86-.89.47-.33.87-.48,1.06-.48-.06.15-.31.51-.86.89-.47.33-.87.48-1.06.48Z"/></svg>