<?xml version="1.0" encoding="UTF-8"?>
<svg id="Layer_1" xmlns="http://www.w3.org/2000/svg" version="1.1" viewBox="0 0 1025.7 193.5">
  <!-- Generator: Adobe Illustrator 29.6.1, SVG Export Plug-In . SVG Version: 2.1.1 Build 9)  -->
  <defs>
    <style>
      .st0 {
        fill: none;
      }

      .st1, .st2 {
        isolation: isolate;
      }

      .st3 {
        fill: #f9a020;
      }

      .st4 {
        fill: #049648;
      }

      .st2 {
        fill: #231f20;
        mix-blend-mode: multiply;
        opacity: .2;
      }
    </style>
  </defs>
  <g class="st1">
    <g id="Layer_11" data-name="Layer_1">
      <path class="st3" d="M1025.5,64c-165.4,40.7-340.1,11.3-509.1-13.6C343.9,25.1,162,5.8,0,69.5v21.1c114.6-72.4,300.2-42.5,420.6-18.4,163.4,32.7,332.8,99.9,501.9,75.5,1.4-.2,2.9-.4,4.3-.6,28.1-4.6,56.2-10.2,83.2-19.2,4.1-1.5,9.4-3.5,15.4-6"/>
      <path class="st4" d="M1025.5,64c-165.4,40.7-340.1,11.3-509.1-13.6C343.9,25.1,162,5.8,0,69.5v67.5c31.3-22.9,70.2-47.4,130.2-68.9,86.2-30.7,185-19.9,273.1-7.9,185.1,25.4,375.8,80.7,561.7,50.5,20.2-3.3,40.4-7.1,60.3-12"/>
      <path class="st2" d="M1025.5,64c-165.4,40.7-340.1,11.3-509.1-13.6-84.3-12.4-170.7-23.3-256.1-23.8,28.5,2.5,57,5.5,85.4,9.1,119,15.1,236.3,57.3,356.2,66.8,67.8,5.3,136.5,5.7,203.9-2.7,1.7-.2,3.3-.4,5-.6,32.6-4.6,65.2-10.2,96.4-19.2,4.9-1.5,11.2-3.7,18.5-6.2"/>
      <line class="st0" x1="1025.5" y1="188.2" y2="188.2"/>
      <g>
        <path class="st2" d="M1025.3,56.2h0"/>
        <path class="st2" d="M516.2,50.5C343.8,25.1,161.9,5.9,0,69.5v38.7c40.8-18.8,81.8-37.4,125.5-48.9,88.5-23.1,184.2-26.6,272.6-17.8,149.3,14.9,302.9,49,453.3,42.8-111.3.8-224.4-17.4-335.2-33.8h0Z"/>
      </g>
      <path class="st3" d="M0,39.6v33.9C67.1,46.6,182.8,31.4,253.6,26.8c-72.3-2.5-191.2,1.5-253.6,12.8h0Z"/>
      <path class="st3" d="M253.7,26.7"/>
    </g>
  </g>
</svg>